<mxfile host="app.diagrams.net" modified="2021-01-15T12:25:11.640Z" agent="5.0 (Macintosh; Intel Mac OS X 10_15_7) AppleWebKit/537.36 (KHTML, like Gecko) Chrome/87.0.4280.141 Safari/537.36" etag="ZBaa_788OC4TTzdyRpaS" version="14.2.3" type="github">
  <diagram id="oyQrdK69_zk_5RSMQO_P" name="Page-1">
    <mxGraphModel dx="1694" dy="1137" grid="1" gridSize="10" guides="1" tooltips="1" connect="1" arrows="1" fold="1" page="1" pageScale="1" pageWidth="850" pageHeight="1100" math="0" shadow="0">
      <root>
        <mxCell id="0" />
        <mxCell id="1" parent="0" />
        <mxCell id="ECesB-shhla84f2rkFuC-1" value="Route53&lt;br&gt;DNS LB" style="rounded=1;whiteSpace=wrap;html=1;" vertex="1" parent="1">
          <mxGeometry x="365" y="126" width="120" height="60" as="geometry" />
        </mxCell>
        <mxCell id="ECesB-shhla84f2rkFuC-2" value="api0.chatfood.io" style="rounded=0;whiteSpace=wrap;html=1;" vertex="1" parent="1">
          <mxGeometry x="185" y="230" width="120" height="60" as="geometry" />
        </mxCell>
        <mxCell id="ECesB-shhla84f2rkFuC-3" value="api1.chatfood.io" style="rounded=0;whiteSpace=wrap;html=1;" vertex="1" parent="1">
          <mxGeometry x="545" y="230" width="120" height="60" as="geometry" />
        </mxCell>
        <mxCell id="ECesB-shhla84f2rkFuC-4" value="api.chatfood.io" style="text;html=1;strokeColor=none;fillColor=none;align=center;verticalAlign=middle;whiteSpace=wrap;rounded=0;" vertex="1" parent="1">
          <mxGeometry x="405" y="100" width="40" height="20" as="geometry" />
        </mxCell>
        <mxCell id="ECesB-shhla84f2rkFuC-5" value="" style="endArrow=none;html=1;exitX=0.5;exitY=0;exitDx=0;exitDy=0;" edge="1" parent="1" source="ECesB-shhla84f2rkFuC-2">
          <mxGeometry width="50" height="50" relative="1" as="geometry">
            <mxPoint x="315" y="206" as="sourcePoint" />
            <mxPoint x="365" y="156" as="targetPoint" />
          </mxGeometry>
        </mxCell>
        <mxCell id="ECesB-shhla84f2rkFuC-7" value="50%" style="edgeLabel;html=1;align=center;verticalAlign=middle;resizable=0;points=[];" vertex="1" connectable="0" parent="ECesB-shhla84f2rkFuC-5">
          <mxGeometry x="0.1692" relative="1" as="geometry">
            <mxPoint as="offset" />
          </mxGeometry>
        </mxCell>
        <mxCell id="ECesB-shhla84f2rkFuC-6" value="" style="endArrow=none;html=1;exitX=0.5;exitY=0;exitDx=0;exitDy=0;entryX=0.5;entryY=0;entryDx=0;entryDy=0;" edge="1" parent="1" target="ECesB-shhla84f2rkFuC-3">
          <mxGeometry width="50" height="50" relative="1" as="geometry">
            <mxPoint x="485" y="156" as="sourcePoint" />
            <mxPoint x="605" y="76" as="targetPoint" />
          </mxGeometry>
        </mxCell>
        <mxCell id="ECesB-shhla84f2rkFuC-8" value="50%" style="edgeLabel;html=1;align=center;verticalAlign=middle;resizable=0;points=[];" vertex="1" connectable="0" parent="ECesB-shhla84f2rkFuC-6">
          <mxGeometry x="-0.2154" y="2" relative="1" as="geometry">
            <mxPoint x="-1" as="offset" />
          </mxGeometry>
        </mxCell>
        <mxCell id="ECesB-shhla84f2rkFuC-9" value="" style="whiteSpace=wrap;html=1;aspect=fixed;" vertex="1" parent="1">
          <mxGeometry x="150" y="326" width="195" height="195" as="geometry" />
        </mxCell>
        <mxCell id="ECesB-shhla84f2rkFuC-10" value="API" style="rounded=1;whiteSpace=wrap;html=1;" vertex="1" parent="1">
          <mxGeometry x="155" y="466" width="50" height="30" as="geometry" />
        </mxCell>
        <mxCell id="ECesB-shhla84f2rkFuC-11" value="API" style="rounded=1;whiteSpace=wrap;html=1;" vertex="1" parent="1">
          <mxGeometry x="155" y="406" width="50" height="30" as="geometry" />
        </mxCell>
        <mxCell id="ECesB-shhla84f2rkFuC-12" value="API" style="rounded=1;whiteSpace=wrap;html=1;" vertex="1" parent="1">
          <mxGeometry x="155" y="346" width="50" height="30" as="geometry" />
        </mxCell>
        <mxCell id="ECesB-shhla84f2rkFuC-17" value="DASH" style="rounded=1;whiteSpace=wrap;html=1;" vertex="1" parent="1">
          <mxGeometry x="220" y="466" width="50" height="30" as="geometry" />
        </mxCell>
        <mxCell id="ECesB-shhla84f2rkFuC-18" value="DASH" style="rounded=1;whiteSpace=wrap;html=1;" vertex="1" parent="1">
          <mxGeometry x="220" y="406" width="50" height="30" as="geometry" />
        </mxCell>
        <mxCell id="ECesB-shhla84f2rkFuC-19" value="DASH" style="rounded=1;whiteSpace=wrap;html=1;" vertex="1" parent="1">
          <mxGeometry x="220" y="346" width="50" height="30" as="geometry" />
        </mxCell>
        <mxCell id="ECesB-shhla84f2rkFuC-20" value="&lt;span style=&quot;font-size: 9px&quot;&gt;WEBVIEW&lt;/span&gt;" style="rounded=1;whiteSpace=wrap;html=1;" vertex="1" parent="1">
          <mxGeometry x="285" y="466" width="50" height="30" as="geometry" />
        </mxCell>
        <mxCell id="ECesB-shhla84f2rkFuC-21" value="&lt;span style=&quot;font-size: 9px&quot;&gt;WEBVIEW&lt;/span&gt;" style="rounded=1;whiteSpace=wrap;html=1;" vertex="1" parent="1">
          <mxGeometry x="285" y="406" width="50" height="30" as="geometry" />
        </mxCell>
        <mxCell id="ECesB-shhla84f2rkFuC-22" value="&lt;font style=&quot;font-size: 9px&quot;&gt;WEBVIEW&lt;/font&gt;" style="rounded=1;whiteSpace=wrap;html=1;" vertex="1" parent="1">
          <mxGeometry x="285" y="346" width="50" height="30" as="geometry" />
        </mxCell>
        <mxCell id="ECesB-shhla84f2rkFuC-25" value="" style="whiteSpace=wrap;html=1;aspect=fixed;" vertex="1" parent="1">
          <mxGeometry x="505" y="326" width="195" height="195" as="geometry" />
        </mxCell>
        <mxCell id="ECesB-shhla84f2rkFuC-26" value="API" style="rounded=1;whiteSpace=wrap;html=1;" vertex="1" parent="1">
          <mxGeometry x="510" y="466" width="50" height="30" as="geometry" />
        </mxCell>
        <mxCell id="ECesB-shhla84f2rkFuC-27" value="API" style="rounded=1;whiteSpace=wrap;html=1;" vertex="1" parent="1">
          <mxGeometry x="510" y="406" width="50" height="30" as="geometry" />
        </mxCell>
        <mxCell id="ECesB-shhla84f2rkFuC-28" value="API" style="rounded=1;whiteSpace=wrap;html=1;" vertex="1" parent="1">
          <mxGeometry x="510" y="346" width="50" height="30" as="geometry" />
        </mxCell>
        <mxCell id="ECesB-shhla84f2rkFuC-29" value="DASH" style="rounded=1;whiteSpace=wrap;html=1;" vertex="1" parent="1">
          <mxGeometry x="575" y="466" width="50" height="30" as="geometry" />
        </mxCell>
        <mxCell id="ECesB-shhla84f2rkFuC-30" value="DASH" style="rounded=1;whiteSpace=wrap;html=1;" vertex="1" parent="1">
          <mxGeometry x="575" y="406" width="50" height="30" as="geometry" />
        </mxCell>
        <mxCell id="ECesB-shhla84f2rkFuC-31" value="DASH" style="rounded=1;whiteSpace=wrap;html=1;" vertex="1" parent="1">
          <mxGeometry x="575" y="346" width="50" height="30" as="geometry" />
        </mxCell>
        <mxCell id="ECesB-shhla84f2rkFuC-32" value="&lt;span style=&quot;font-size: 9px&quot;&gt;WEBVIEW&lt;/span&gt;" style="rounded=1;whiteSpace=wrap;html=1;" vertex="1" parent="1">
          <mxGeometry x="640" y="466" width="50" height="30" as="geometry" />
        </mxCell>
        <mxCell id="ECesB-shhla84f2rkFuC-33" value="&lt;span style=&quot;font-size: 9px&quot;&gt;WEBVIEW&lt;/span&gt;" style="rounded=1;whiteSpace=wrap;html=1;" vertex="1" parent="1">
          <mxGeometry x="640" y="406" width="50" height="30" as="geometry" />
        </mxCell>
        <mxCell id="ECesB-shhla84f2rkFuC-34" value="&lt;font style=&quot;font-size: 9px&quot;&gt;WEBVIEW&lt;/font&gt;" style="rounded=1;whiteSpace=wrap;html=1;" vertex="1" parent="1">
          <mxGeometry x="640" y="346" width="50" height="30" as="geometry" />
        </mxCell>
        <mxCell id="ECesB-shhla84f2rkFuC-35" value="app&lt;br&gt;pool0" style="text;html=1;strokeColor=none;fillColor=none;align=center;verticalAlign=middle;whiteSpace=wrap;rounded=0;" vertex="1" parent="1">
          <mxGeometry x="88" y="416" width="40" height="20" as="geometry" />
        </mxCell>
        <mxCell id="ECesB-shhla84f2rkFuC-36" value="app&lt;br&gt;pool1" style="text;html=1;strokeColor=none;fillColor=none;align=center;verticalAlign=middle;whiteSpace=wrap;rounded=0;" vertex="1" parent="1">
          <mxGeometry x="716" y="411" width="40" height="20" as="geometry" />
        </mxCell>
        <mxCell id="ECesB-shhla84f2rkFuC-39" value="" style="rounded=0;whiteSpace=wrap;html=1;" vertex="1" parent="1">
          <mxGeometry x="150" y="600" width="250" height="130" as="geometry" />
        </mxCell>
        <mxCell id="ECesB-shhla84f2rkFuC-40" value="" style="rounded=0;whiteSpace=wrap;html=1;" vertex="1" parent="1">
          <mxGeometry x="460" y="600" width="240" height="130" as="geometry" />
        </mxCell>
        <mxCell id="ECesB-shhla84f2rkFuC-41" value="" style="endArrow=none;html=1;" edge="1" parent="1">
          <mxGeometry width="50" height="50" relative="1" as="geometry">
            <mxPoint x="150" y="743" as="sourcePoint" />
            <mxPoint x="700" y="743" as="targetPoint" />
          </mxGeometry>
        </mxCell>
        <mxCell id="ECesB-shhla84f2rkFuC-42" value="Data Layer" style="edgeLabel;html=1;align=center;verticalAlign=middle;resizable=0;points=[];" vertex="1" connectable="0" parent="ECesB-shhla84f2rkFuC-41">
          <mxGeometry x="0.0298" relative="1" as="geometry">
            <mxPoint as="offset" />
          </mxGeometry>
        </mxCell>
        <mxCell id="ECesB-shhla84f2rkFuC-43" value="" style="endArrow=classic;html=1;entryX=0;entryY=0;entryDx=0;entryDy=0;" edge="1" parent="1" target="ECesB-shhla84f2rkFuC-40">
          <mxGeometry width="50" height="50" relative="1" as="geometry">
            <mxPoint x="250" y="521" as="sourcePoint" />
            <mxPoint x="300" y="471" as="targetPoint" />
          </mxGeometry>
        </mxCell>
        <mxCell id="ECesB-shhla84f2rkFuC-44" value="" style="endArrow=classic;html=1;" edge="1" parent="1">
          <mxGeometry width="50" height="50" relative="1" as="geometry">
            <mxPoint x="249" y="521" as="sourcePoint" />
            <mxPoint x="360" y="596" as="targetPoint" />
          </mxGeometry>
        </mxCell>
        <mxCell id="ECesB-shhla84f2rkFuC-45" value="" style="endArrow=classic;html=1;entryX=1;entryY=0;entryDx=0;entryDy=0;exitX=0.5;exitY=1;exitDx=0;exitDy=0;" edge="1" parent="1" source="ECesB-shhla84f2rkFuC-25" target="ECesB-shhla84f2rkFuC-39">
          <mxGeometry width="50" height="50" relative="1" as="geometry">
            <mxPoint x="260" y="531" as="sourcePoint" />
            <mxPoint x="470" y="610" as="targetPoint" />
          </mxGeometry>
        </mxCell>
        <mxCell id="ECesB-shhla84f2rkFuC-46" value="" style="endArrow=classic;html=1;" edge="1" parent="1">
          <mxGeometry width="50" height="50" relative="1" as="geometry">
            <mxPoint x="600" y="521" as="sourcePoint" />
            <mxPoint x="510" y="596" as="targetPoint" />
          </mxGeometry>
        </mxCell>
        <mxCell id="ECesB-shhla84f2rkFuC-47" value="" style="endArrow=none;html=1;entryX=0.5;entryY=1;entryDx=0;entryDy=0;exitX=0.488;exitY=-0.006;exitDx=0;exitDy=0;exitPerimeter=0;" edge="1" parent="1" source="ECesB-shhla84f2rkFuC-9" target="ECesB-shhla84f2rkFuC-2">
          <mxGeometry width="50" height="50" relative="1" as="geometry">
            <mxPoint x="300" y="380" as="sourcePoint" />
            <mxPoint x="350" y="330" as="targetPoint" />
          </mxGeometry>
        </mxCell>
        <mxCell id="ECesB-shhla84f2rkFuC-49" value="" style="endArrow=none;html=1;entryX=0.5;entryY=1;entryDx=0;entryDy=0;exitX=0.488;exitY=-0.006;exitDx=0;exitDy=0;exitPerimeter=0;" edge="1" parent="1">
          <mxGeometry width="50" height="50" relative="1" as="geometry">
            <mxPoint x="604.9200000000001" y="324.83000000000015" as="sourcePoint" />
            <mxPoint x="604.76" y="290" as="targetPoint" />
          </mxGeometry>
        </mxCell>
        <mxCell id="ECesB-shhla84f2rkFuC-50" value="RDS&lt;br&gt;Write" style="shape=cylinder3;whiteSpace=wrap;html=1;boundedLbl=1;backgroundOutline=1;size=15;" vertex="1" parent="1">
          <mxGeometry x="160" y="630" width="60" height="80" as="geometry" />
        </mxCell>
        <mxCell id="ECesB-shhla84f2rkFuC-51" value="RDS&lt;br&gt;Read" style="shape=cylinder3;whiteSpace=wrap;html=1;boundedLbl=1;backgroundOutline=1;size=15;" vertex="1" parent="1">
          <mxGeometry x="330" y="630" width="60" height="80" as="geometry" />
        </mxCell>
        <mxCell id="ECesB-shhla84f2rkFuC-52" value="RDS&lt;br&gt;Read" style="shape=cylinder3;whiteSpace=wrap;html=1;boundedLbl=1;backgroundOutline=1;size=15;" vertex="1" parent="1">
          <mxGeometry x="245" y="630" width="60" height="80" as="geometry" />
        </mxCell>
        <mxCell id="ECesB-shhla84f2rkFuC-53" value="MySQL" style="text;html=1;strokeColor=none;fillColor=none;align=center;verticalAlign=middle;whiteSpace=wrap;rounded=0;" vertex="1" parent="1">
          <mxGeometry x="258" y="603" width="40" height="20" as="geometry" />
        </mxCell>
        <mxCell id="ECesB-shhla84f2rkFuC-54" value="Redis" style="text;html=1;strokeColor=none;fillColor=none;align=center;verticalAlign=middle;whiteSpace=wrap;rounded=0;" vertex="1" parent="1">
          <mxGeometry x="560" y="603" width="40" height="20" as="geometry" />
        </mxCell>
      </root>
    </mxGraphModel>
  </diagram>
</mxfile>
